Input #0, mov,mp4,m4a,3gp,3g2,mj2, from '/home/hbattu/projects/huberman-gpt/huberman-audio/mp3/tmpex5bw7_z.mp4':
  Metadata:
    major_brand     : dash
    minor_version   : 0
    compatible_brands: iso6mp41
    creation_time   : 2021-10-26T19:53:34.000000Z
  Duration: 02:14:27.12, start: 0.000000, bitrate: 129 kb/s
    Stream #0:0(eng): Audio: aac (LC) (mp4a / 0x6134706D), 44100 Hz, stereo, fltp, 0 kb/s (default)
    Metadata:
      creation_time   : 2021-10-26T19:53:34.000000Z
      handler_name    : ISO Media file produced by Google Inc.
Stream mapping:
  Stream #0:0 -> #0:0 (aac (native) -> mp3 (libmp3lame))
Press [q] to stop, [?] for help
[graph_0_in_0_0 @ 0x556b673d4180] tb:1/44100 samplefmt:fltp samplerate:44100 chlayout:0x3
Output #0, mp3, to '../huberman-audio/mp3/oUu3f0ETMJQ.mp3':
  Metadata:
    major_brand     : dash
    minor_version   : 0
    compatible_brands: iso6mp41
    TSSE            : Lavf58.29.100
    Stream #0:0(eng): Audio: mp3 (libmp3lame), 44100 Hz, stereo, fltp, delay 1105 (default)
    Metadata:
      creation_time   : 2021-10-26T19:53:34.000000Z
      handler_name    : ISO Media file produced by Google Inc.
      encoder         : Lavc58.54.100 libmp3lame
No more output streams to write to, finishing.
size=  126050kB time=02:14:27.13 bitrate= 128.0kbits/s speed=89.5x    
[AVIOContext @ 0x556b672c2900] Statistics: 0 seeks, 181 writeouts
video:0kB audio:126049kB subtitle:0kB other streams:0kB global headers:0kB muxing overhead: 0.000268%
Input file #0 (/home/hbattu/projects/huberman-gpt/huberman-audio/mp3/tmpex5bw7_z.mp4):
  Input stream #0:0 (audio): 347422 packets read (129073969 bytes); 347422 frames decoded (355760128 samples); 
  Total: 347422 packets (129073969 bytes) demuxed
Output file #0 (../huberman-audio/mp3/oUu3f0ETMJQ.mp3):
  Output stream #0:0 (audio): 308820 frames encoded (355760128 samples); 308821 packets muxed (129074573 bytes); 
  Total: 308821 packets (129074573 bytes) muxed
[AVIOContext @ 0x556b672ef480] Statistics: 2 seeks, 494 writeouts
[AVIOContext @ 0x556b672cb880] Statistics: 130558049 bytes read, 0 seeks
